<svg width="25" height="24" viewBox="0 0 25 24" fill="none" xmlns="http://www.w3.org/2000/svg">
<path d="M18.875 3H6.875C6.323 3 5.875 3.448 5.875 4V20.113C5.875 20.603 6.272 21 6.762 21H15.875C18.084 21 19.875 19.209 19.875 17V4C19.875 3.448 19.427 3 18.875 3Z" stroke="#FF6339" stroke-width="1.5" stroke-linecap="round" stroke-linejoin="round"/>
<path d="M11.565 16H9.065M14.875 12H9.703C9.246 12 8.875 11.629 8.875 11.172V6.828C8.875 6.371 9.246 6 9.703 6H16.047C16.504 6 16.875 6.371 16.875 6.828V10C16.875 11.105 15.98 12 14.875 12ZM14.312 16.75C14.174 16.75 14.062 16.862 14.063 17C14.063 17.138 14.175 17.25 14.313 17.25C14.451 17.25 14.563 17.138 14.563 17C14.563 16.862 14.451 16.75 14.312 16.75ZM16.312 14.75C16.174 14.75 16.062 14.862 16.063 15C16.063 15.138 16.175 15.25 16.313 15.25C16.451 15.25 16.563 15.138 16.563 15C16.563 14.862 16.451 14.75 16.312 14.75ZM10.315 14.75V17.25V14.75Z" stroke="#FF6339" stroke-width="1.5" stroke-linecap="round" stroke-linejoin="round"/>
</svg>
