<svg width="25" height="24" viewBox="0 0 25 24" fill="none" xmlns="http://www.w3.org/2000/svg">
<path d="M12.625 4V3M19.754 17.141C21.45 16.525 22.204 14.546 21.348 12.958L18.821 8.267C18.586 7.83 18.066 7.632 17.599 7.801L15.306 8.634C14.832 8.806 14.561 9.304 14.672 9.795L15.858 15.016C16.254 16.752 18.081 17.748 19.754 17.141ZM22.625 19.77L19.255 21L22.625 19.77ZM15.315 12.61H21.155H15.315ZM19.755 17.14L20.935 20.39L19.755 17.14ZM5.496 17.141C3.8 16.525 3.046 14.546 3.902 12.958L6.429 8.267C6.664 7.83 7.184 7.632 7.651 7.801L9.944 8.634C10.418 8.806 10.689 9.304 10.578 9.795L9.392 15.016C8.996 16.752 7.169 17.748 5.496 17.141V17.141ZM2.625 19.77L5.995 21L2.625 19.77ZM9.935 12.61H4.085H9.935ZM5.495 17.14L4.315 20.39L5.495 17.14ZM15.625 5L16.625 4L15.625 5ZM9.625 5L8.625 4L9.625 5Z" stroke="#2AAAFE" stroke-width="1.5" stroke-linecap="round" stroke-linejoin="round"/>
</svg>
